<svg width="578" height="144" viewBox="0 0 578 144" fill="none" xmlns="http://www.w3.org/2000/svg">
<path d="M68.462 102.306C66.935 112.186 65.2284 123.414 63.432 134.552C63.3422 134.821 63.2524 135.091 63.2524 135.45C61.4559 145.69 60.2883 146.139 51.6655 139.941C44.1205 134.552 44.1205 134.552 46.366 125.3C47.893 119.102 49.5098 112.905 50.9469 106.617C51.2164 105.54 51.9349 104.192 50.5876 103.384C49.5098 102.755 48.6116 103.743 47.7134 104.282C40.9768 108.414 34.1504 112.366 27.5037 116.677C24.7192 118.474 22.294 118.564 19.6892 116.588C17.0844 114.611 14.3 112.815 11.785 110.659C8.64128 108.144 8.91073 105.001 12.5036 103.204C24.0006 97.4557 35.4079 91.4377 47.0846 86.2281C57.5936 81.6472 68.6416 89.5514 68.462 102.306Z" fill="#6242C2"/>
<path d="M53.1027 0C62.3543 0 62.3543 -5.13959e-06 65.8573 8.44316C68.1028 13.9222 70.3483 19.4911 72.6836 24.9702C73.3124 26.4971 73.3124 29.1918 75.3783 29.102C77.1747 29.0121 77.2645 26.3175 77.9831 24.7906C80.7675 18.2336 83.552 11.5869 86.1568 4.94015C87.4143 1.52695 89.57 -0.0898154 93.2526 0.0898264C96.3964 0.269468 99.5401 -1.64494e-05 102.684 0.179625C106.726 0.449088 108.253 3.05391 106.456 6.73657C100.618 18.1438 94.9592 29.7307 88.582 40.8685C82.4741 51.5572 67.8333 51.1979 61.8153 40.3296C55.8872 29.6409 50.4081 18.6827 44.7494 7.8144C42.1446 2.78443 43.8511 0.269446 49.5997 0.179625C50.7674 -1.64494e-05 51.935 0 53.1027 0Z" fill="#3500D3"/>
<path d="M55.1684 58.204C55.1684 66.2879 50.6774 72.3059 43.0426 73.8328C30.4677 76.258 17.803 78.3239 5.13821 80.3898C1.54537 81.0185 -0.700148 78.5035 0.19806 75.0005C1.18609 71.4077 2.44358 67.9046 3.61126 64.4016C4.41964 61.9765 6.21606 60.9884 8.73104 60.8088C16.4556 60.2699 24.1802 59.6411 31.9048 59.0124C33.5216 58.9226 35.6773 59.3717 36.306 57.6651C36.845 56.1381 34.7791 55.4195 33.7012 54.5213C27.8629 49.5812 22.1144 44.641 16.276 39.7907C13.6712 37.635 12.773 35.12 14.1203 31.8865C15.288 29.0122 16.0065 25.8685 17.0844 22.9942C18.5215 19.2218 21.4856 18.4134 24.3599 21.1978C33.2522 30.0003 42.1444 38.8925 50.857 47.8746C53.7313 50.7489 55.4379 54.4315 55.1684 58.204Z" fill="#240090"/>
<path d="M82.5637 102.935C82.2943 89.1922 93.7913 81.6473 104.57 86.767C115.438 91.9767 126.307 97.3659 137.175 102.665C142.205 105.18 142.474 107.785 138.073 111.288C128.103 119.282 128.103 119.282 117.055 112.725C112.294 109.941 107.624 106.977 102.863 104.102C101.875 103.474 100.797 102.575 99.6297 103.474C98.5518 104.282 99.5399 105.45 99.7195 106.348C101.606 114.162 103.402 121.977 105.558 129.791C106.366 132.845 105.827 135.001 103.402 136.797C100.618 138.773 97.9231 141.019 95.0488 142.815C91.9051 144.791 89.1207 143.803 88.5817 140.39C86.2464 127.276 84.3601 114.162 82.5637 102.935Z" fill="#4C1ADF"/>
<path d="M95.498 58.9225C95.7675 54.6111 97.2945 50.7488 100.348 47.6949C108.881 39.0721 117.414 30.4492 125.947 21.9163C129.54 18.3234 132.145 19.042 133.762 23.9821C138.432 38.2636 139.151 35.3894 128.462 44.4613C124.331 47.9643 120.199 51.3775 116.157 54.8805C115.348 55.5991 113.821 56.3176 114.271 57.665C114.72 59.1919 116.426 59.1021 117.684 59.1919C125.588 59.8207 133.492 60.5392 141.307 60.9883C144.63 61.168 146.426 62.7848 147.325 65.9285C148.133 69.0722 149.391 72.1261 150.289 75.3597C151.097 78.4136 149.031 80.8388 145.977 80.3896C132.864 78.2339 119.75 76.0782 106.726 73.5633C100.348 72.1261 95.6777 65.4794 95.498 58.9225Z" fill="#4C1ADF"/>
<path d="M206.688 107V50.492L194.958 53.246V43.25L212.196 35.6H220.254V107H206.688ZM266.563 108.224C261.395 108.224 256.839 107.102 252.895 104.858C248.951 102.614 245.823 99.486 243.511 95.474C241.267 91.462 240.145 86.872 240.145 81.704C240.145 76.536 241.267 71.946 243.511 67.934C245.823 63.922 248.951 60.794 252.895 58.55C256.839 56.306 261.395 55.184 266.563 55.184C273.023 55.184 278.463 56.884 282.883 60.284C287.303 63.616 290.125 68.24 291.349 74.156H277.579C276.899 71.708 275.539 69.804 273.499 68.444C271.527 67.016 269.181 66.302 266.461 66.302C262.857 66.302 259.797 67.662 257.281 70.382C254.765 73.102 253.507 76.876 253.507 81.704C253.507 86.532 254.765 90.306 257.281 93.026C259.797 95.746 262.857 97.106 266.461 97.106C269.181 97.106 271.527 96.426 273.499 95.066C275.539 93.706 276.899 91.768 277.579 89.252H291.349C290.125 94.964 287.303 99.554 282.883 103.022C278.463 106.49 273.023 108.224 266.563 108.224ZM313.749 108.224C307.425 108.224 302.529 106.252 299.061 102.308C295.661 98.364 293.961 92.584 293.961 84.968V56.408H306.915V83.744C306.915 88.096 307.799 91.428 309.567 93.74C311.335 96.052 314.123 97.208 317.931 97.208C321.535 97.208 324.493 95.916 326.805 93.332C329.185 90.748 330.375 87.144 330.375 82.52V56.408H343.431V107H331.905L330.885 98.432C329.321 101.424 327.043 103.804 324.051 105.572C321.127 107.34 317.693 108.224 313.749 108.224ZM348.674 107V56.408H360.302L361.526 65.894C363.362 62.63 365.844 60.046 368.972 58.142C372.168 56.17 375.908 55.184 380.192 55.184V68.954H376.52C373.664 68.954 371.114 69.396 368.87 70.28C366.626 71.164 364.858 72.694 363.566 74.87C362.342 77.046 361.73 80.072 361.73 83.948V107H348.674ZM398.397 108.224C394.045 108.224 390.475 107.544 387.687 106.184C384.899 104.756 382.825 102.886 381.465 100.574C380.105 98.262 379.425 95.712 379.425 92.924C379.425 88.232 381.261 84.424 384.933 81.5C388.605 78.576 394.113 77.114 401.457 77.114H414.309V75.89C414.309 72.422 413.323 69.872 411.351 68.24C409.379 66.608 406.931 65.792 404.007 65.792C401.355 65.792 399.043 66.438 397.071 67.73C395.099 68.954 393.875 70.79 393.399 73.238H380.649C380.989 69.566 382.213 66.37 384.321 63.65C386.497 60.93 389.285 58.856 392.685 57.428C396.085 55.932 399.893 55.184 404.109 55.184C411.317 55.184 416.995 56.986 421.143 60.59C425.291 64.194 427.365 69.294 427.365 75.89V107H416.247L415.023 98.84C413.527 101.56 411.419 103.804 408.699 105.572C406.047 107.34 402.613 108.224 398.397 108.224ZM401.355 98.024C405.095 98.024 407.985 96.8 410.025 94.352C412.133 91.904 413.459 88.878 414.003 85.274H402.885C399.417 85.274 396.935 85.92 395.439 87.212C393.943 88.436 393.195 89.966 393.195 91.802C393.195 93.774 393.943 95.304 395.439 96.392C396.935 97.48 398.907 98.024 401.355 98.024ZM453.509 107C448.205 107 443.955 105.708 440.759 103.124C437.563 100.54 435.965 95.95 435.965 89.354V67.322H427.295V56.408H435.965L437.495 42.842H449.021V56.408H462.689V67.322H449.021V89.456C449.021 91.904 449.531 93.604 450.551 94.556C451.639 95.44 453.475 95.882 456.059 95.882H462.383V107H453.509ZM489.026 108.224C483.926 108.224 479.404 107.136 475.46 104.96C471.516 102.784 468.422 99.724 466.178 95.78C463.934 91.836 462.812 87.28 462.812 82.112C462.812 76.876 463.9 72.218 466.076 68.138C468.32 64.058 471.38 60.896 475.256 58.652C479.2 56.34 483.824 55.184 489.128 55.184C494.092 55.184 498.478 56.272 502.286 58.448C506.094 60.624 509.052 63.616 511.16 67.424C513.336 71.164 514.424 75.346 514.424 79.97C514.424 80.718 514.39 81.5 514.322 82.316C514.322 83.132 514.288 83.982 514.22 84.866H475.766C476.038 88.81 477.398 91.904 479.846 94.148C482.362 96.392 485.388 97.514 488.924 97.514C491.576 97.514 493.786 96.936 495.554 95.78C497.39 94.556 498.75 92.992 499.634 91.088H512.894C511.942 94.284 510.344 97.208 508.1 99.86C505.924 102.444 503.204 104.484 499.94 105.98C496.744 107.476 493.106 108.224 489.026 108.224ZM489.128 65.792C485.932 65.792 483.11 66.71 480.662 68.546C478.214 70.314 476.65 73.034 475.97 76.706H501.164C500.96 73.374 499.736 70.722 497.492 68.75C495.248 66.778 492.46 65.792 489.128 65.792ZM540.501 108.224C535.741 108.224 531.491 107.068 527.751 104.756C524.011 102.444 521.053 99.282 518.877 95.27C516.701 91.258 515.613 86.702 515.613 81.602C515.613 76.502 516.701 71.98 518.877 68.036C521.053 64.024 524.011 60.896 527.751 58.652C531.491 56.34 535.741 55.184 540.501 55.184C544.309 55.184 547.641 55.898 550.497 57.326C553.353 58.754 555.665 60.76 557.433 63.344V33.56H570.489V107H558.861L557.433 99.758C555.801 102.002 553.625 103.974 550.905 105.674C548.253 107.374 544.785 108.224 540.501 108.224ZM543.255 96.8C547.471 96.8 550.905 95.406 553.557 92.618C556.277 89.762 557.637 86.124 557.637 81.704C557.637 77.284 556.277 73.68 553.557 70.892C550.905 68.036 547.471 66.608 543.255 66.608C539.107 66.608 535.673 68.002 532.953 70.79C530.233 73.578 528.873 77.182 528.873 81.602C528.873 86.022 530.233 89.66 532.953 92.516C535.673 95.372 539.107 96.8 543.255 96.8Z" fill="white"/>
</svg>
